<?xml version="1.0" encoding="UTF-8" standalone="no"?>
<svg id="svg2" xmlns:rdf="http://www.w3.org/1999/02/22-rdf-syntax-ns#" xmlns="http://www.w3.org/2000/svg" height="297mm" width="210mm" version="1.1" xmlns:cc="http://creativecommons.org/ns#" xmlns:dc="http://purl.org/dc/elements/1.1/" viewBox="0 0 744.09448819 1052.3622047">
 <g id="layer1">
  <rect id="rect4136" height="314.29" width="594.29" stroke="#fff" y="402.72" x="267.5" fill="#fff"/>
  <path id="path4140-7" d="m10.513 0.26648c-1.2572 0-3.5325 1.0564-3.7717 2.7987-0.17099 1.2455 1.8855 4.1568 1.8855 4.1568l1.8109 3.1352-3.1359-1.8102s-2.9113-2.0572-4.1568-1.8862c-1.7423 0.23918-2.7987 2.5145-2.7987 3.7717s1.0564 3.5325 2.7987 3.7717c1.2455 0.17099 4.1568-1.8855 4.1568-1.8855l3.1359-1.8109-1.8109 3.1359s-2.0565 2.9113-1.8855 4.1568c0.23917 1.7423 2.5145 2.7987 3.7717 2.7987s3.5325-1.0564 3.7717-2.7987c0.17099-1.2455-1.8862-4.1568-1.8862-4.1568l-1.8102-3.1359 3.1352 1.8109s2.9113 2.0565 4.1568 1.8855c1.7423-0.23918 2.7987-2.5145 2.7987-3.7717s-1.0564-3.5325-2.7987-3.7717c-1.2455-0.17098-4.1568 1.8862-4.1568 1.8862l-3.1352 1.8102 1.8102-3.1352s2.0572-2.9113 1.8862-4.1568c-0.23917-1.7423-2.5145-2.7987-3.7717-2.7987z" fill="#5aa02c"/>
 </g>
</svg>
