<?xml version="1.0" encoding="UTF-8" standalone="no"?>
<!-- Created with Inkscape (http://www.inkscape.org/) -->

<svg
   xmlns:dc="http://purl.org/dc/elements/1.1/"
   xmlns:cc="http://creativecommons.org/ns#"
   xmlns:rdf="http://www.w3.org/1999/02/22-rdf-syntax-ns#"
   xmlns:svg="http://www.w3.org/2000/svg"
   xmlns="http://www.w3.org/2000/svg"
   xmlns:sodipodi="http://sodipodi.sourceforge.net/DTD/sodipodi-0.dtd"
   xmlns:inkscape="http://www.inkscape.org/namespaces/inkscape"
   width="210mm"
   height="297mm"
   viewBox="0 0 744.09448819 1052.3622047"
   id="svg2"
   version="1.1"
   inkscape:version="0.91 r13725"
   sodipodi:docname="flowers.svg">
  <defs
     id="defs4" />
  <sodipodi:namedview
     id="base"
     pagecolor="#ffffff"
     bordercolor="#666666"
     borderopacity="1.0"
     inkscape:pageopacity="0.0"
     inkscape:pageshadow="2"
     inkscape:zoom="3.959798"
     inkscape:cx="47.885989"
     inkscape:cy="1024.5085"
     inkscape:document-units="px"
     inkscape:current-layer="layer1"
     showgrid="false"
     inkscape:window-width="1024"
     inkscape:window-height="705"
     inkscape:window-x="-8"
     inkscape:window-y="-8"
     inkscape:window-maximized="1" />
  <metadata
     id="metadata7">
    <rdf:RDF>
      <cc:Work
         rdf:about="">
        <dc:format>image/svg+xml</dc:format>
        <dc:type
           rdf:resource="http://purl.org/dc/dcmitype/StillImage" />
        <dc:title />
      </cc:Work>
    </rdf:RDF>
  </metadata>
  <g
     inkscape:label="Capa 1"
     inkscape:groupmode="layer"
     id="layer1">
    <path
       sodipodi:type="star"
       style="fill:#ffff00;fill-opacity:1;fill-rule:nonzero;stroke:none;stroke-width:1;stroke-miterlimit:4;stroke-dasharray:none;stroke-dashoffset:0;stroke-opacity:1"
       id="path4849"
       sodipodi:sides="15"
       sodipodi:cx="7.4290968"
       sodipodi:cy="7.588876"
       sodipodi:r1="2.0322864"
       sodipodi:r2="7.3322682"
       sodipodi:arg1="1.068631"
       sodipodi:arg2="1.2288874"
       inkscape:flatsided="false"
       inkscape:rounded="0.57"
       inkscape:randomized="0"
       d="M 8.4072863,9.370261 C 5.8165186,10.963488 12.799582,13.619084 9.8875046,14.496726 6.9444344,15.383708 10.645057,9.2081167 7.5981627,9.6141177 4.5833547,10.015843 9.8825726,15.282118 6.8652884,14.899435 3.8158919,14.512679 9.7084177,10.376175 6.7598061,9.5077916 3.8422455,8.6485533 6.5413348,15.614921 3.9405598,14.038083 1.3121054,12.444462 8.3776634,11.062283 6.0371759,9.0696676 3.7213354,7.0980355 3.3535991,14.559948 1.619031,12.061604 -0.13399773,9.53667 6.8828933,11.147808 5.5552215,8.3755013 4.2415309,5.6323885 0.87055391,12.299613 0.30211527,9.3117493 -0.27237314,6.2920867 5.4825668,10.617962 5.3972771,7.5453202 5.3128855,4.5050359 -0.47845962,9.2247485 0.21751939,6.2639946 0.92090555,3.27173 4.418813,9.5643583 5.5906528,6.7226703 6.7501523,3.9109072 -0.46018483,5.8670269 1.3798707,3.4453238 3.2395096,0.99784704 3.8755645,8.1691762 6.1019121,6.0497952 8.3048147,3.9527327 0.92221841,2.8070287 3.5881882,1.3431108 6.2825314,-0.13638717 3.9467541,6.6736548 6.8426537,5.6430411 9.7080575,4.6232804 3.42972,0.57385527 6.4606337,0.32084737 9.5238046,0.06514676 4.6200723,5.3363835 7.6847967,5.5727395 10.717247,5.8066065 6.6287502,-0.44635739 9.5005352,0.55529203 12.402884,1.5676018 5.7790964,4.3885885 8.4827267,5.8510462 11.157886,7.2981031 9.9661675,-0.07720523 12.182266,2.0059072 14.42195,4.1111898 7.2234205,3.9941523 9.0984746,6.4298394 10.953783,8.8398769 12.864902,1.617482 14.042131,4.4218684 15.231889,7.2561013 8.7033079,4.2212765 9.4255719,7.2090405 10.14023,10.165341 14.823737,4.3446774 14.758542,7.3854339 14.692653,10.458553 9.9628726,5.0306891 9.4074605,8.0539186 8.8578972,11.045311 15.503971,7.6328242 14.207625,10.384176 12.897483,13.164811 10.784324,6.2824355 9.047272,8.8183866 7.3285119,11.327632 14.787986,10.913372 12.48464,12.899586 10.156779,14.906939 11.025627,7.7600772 8.4072863,9.370261 Z" />
  </g>
</svg>
