<?xml version="1.0" encoding="UTF-8" standalone="no"?>
<!-- Created with Inkscape (http://www.inkscape.org/) -->

<svg
   xmlns:dc="http://purl.org/dc/elements/1.1/"
   xmlns:cc="http://creativecommons.org/ns#"
   xmlns:rdf="http://www.w3.org/1999/02/22-rdf-syntax-ns#"
   xmlns:svg="http://www.w3.org/2000/svg"
   xmlns="http://www.w3.org/2000/svg"
   xmlns:sodipodi="http://sodipodi.sourceforge.net/DTD/sodipodi-0.dtd"
   xmlns:inkscape="http://www.inkscape.org/namespaces/inkscape"
   width="210mm"
   height="297mm"
   id="svg3988"
   version="1.1"
   inkscape:version="0.91 r13725"
   sodipodi:docname="star2.svg">
  <defs
     id="defs3990" />
  <sodipodi:namedview
     id="base"
     pagecolor="#ffffff"
     bordercolor="#666666"
     borderopacity="1.0"
     inkscape:pageopacity="0.0"
     inkscape:pageshadow="2"
     inkscape:zoom="5.6"
     inkscape:cx="28.501931"
     inkscape:cy="1042.9955"
     inkscape:document-units="px"
     inkscape:current-layer="layer1"
     showgrid="false"
     inkscape:window-width="596"
     inkscape:window-height="435"
     inkscape:window-x="291"
     inkscape:window-y="180"
     inkscape:window-maximized="0" />
  <metadata
     id="metadata3993">
    <rdf:RDF>
      <cc:Work
         rdf:about="">
        <dc:format>image/svg+xml</dc:format>
        <dc:type
           rdf:resource="http://purl.org/dc/dcmitype/StillImage" />
        <dc:title></dc:title>
      </cc:Work>
    </rdf:RDF>
  </metadata>
  <g
     inkscape:label="Capa 1"
     inkscape:groupmode="layer"
     id="layer1">
    <path
       style="fill:#ffb380"
       d="M 5.0820312 0.08203125 C 5.0820312 1.6854609 4.9150419 2.8002248 4.4648438 3.5683594 C 3.7835576 3.2977263 3.0603466 2.7439403 2.1796875 1.8632812 C 3.0910898 2.7746835 3.6618802 3.5188868 3.9199219 4.2207031 C 3.1566724 4.8596233 1.9488308 5.0820312 0.08203125 5.0820312 C 1.9249192 5.0820312 3.1257355 5.2998023 3.890625 5.9199219 C 3.6222085 6.6050023 3.0660329 7.3324046 2.1796875 8.21875 C 3.0446381 7.3537994 3.7569254 6.8077431 4.4277344 6.53125 C 4.9076128 7.3006695 5.0820312 8.4332493 5.0820312 10.082031 C 5.0820312 8.3190774 5.2781628 7.1417257 5.8378906 6.3730469 C 6.6392009 6.5502486 7.476631 7.1602245 8.5351562 8.21875 C 7.5226983 7.2062918 6.9210198 6.3967933 6.7148438 5.6269531 C 7.4781538 5.2286726 8.5624732 5.0820313 10.082031 5.0820312 C 8.5503016 5.0820312 7.4614761 4.9329226 6.6972656 4.5273438 C 6.8836412 3.7356532 7.4906542 2.9077834 8.5351562 1.8632812 C 7.456112 2.9423256 6.6064713 3.5574812 5.7910156 3.7207031 C 5.2689058 2.9509881 5.0820312 1.7925168 5.0820312 0.08203125 z "
       id="path3151" />
  </g>
</svg>
