<svg id="svg3988" xmlns:rdf="http://www.w3.org/1999/02/22-rdf-syntax-ns#" xmlns="http://www.w3.org/2000/svg" height="297mm" width="210mm" version="1.1" xmlns:cc="http://creativecommons.org/ns#" xmlns:dc="http://purl.org/dc/elements/1.1/">
 <g id="layer1">
  <path id="path3151" fill="#ffb380" d="m5.082 0.082031c0 1.6035-0.167 2.7182-0.6172 3.4864-0.6812-0.2707-1.4045-0.8245-2.2851-1.7051 0.9114 0.9114 1.4822 1.6556 1.7402 2.3574-0.7632 0.6389-1.9711 0.8613-3.8379 0.8613 1.8429 0 3.0437 0.2178 3.8086 0.8379-0.2684 0.6851-0.8246 1.4125-1.7109 2.2989 0.8649-0.865 1.5772-1.4111 2.248-1.6876 0.4799 0.7695 0.6543 1.902 0.6543 3.5508 0-1.7629 0.1962-2.9403 0.7559-3.709 0.8013 0.1772 1.6387 0.7872 2.6973 1.8458-1.0125-1.0125-1.6142-1.822-1.8204-2.5918 0.7634-0.3983 1.8477-0.545 3.3672-0.545-1.5317 0-2.6205-0.1491-3.3847-0.5547 0.1863-0.7916 0.7934-1.6195 1.8379-2.664-1.0791 1.079-1.9287 1.6942-2.7442 1.8574-0.5221-0.7697-0.709-1.9282-0.709-3.6387z"/>
 </g>
</svg>
